<svg xmlns="http://www.w3.org/2000/svg" viewBox="0 0 204 109" width="512" height="512"><g fill="rgb(0, 51, 232)"><path fill-rule="nonzero" d="M45.055 27.69l-7.558-11.011h-7.626l6.68 9.731H8.605l6.579-9.731H7.513L0 27.689h3.514v17.724h38.027V27.69h3.514zm-1.126-12.684v-3.85H25.907v-3.12H41.99L44.02 2.12h-6.973l-.698 2.066H2.128v3.85h17.02v3.12H.991v3.85h18.157v10.27h6.759v-10.27h18.022zm-9.011 18.958H10.194V30.26h24.724v3.704zm0 7.6H10.194v-3.75h24.724v3.75zM12.22 73.956l-5.147-10.72H0l5.148 10.72h7.073zm-.653 15.052H4.697L.101 106.542h6.871l4.596-17.533zm.743-1.874l-4.697-11.55H.541l4.697 11.55h7.073zm32.845 4.938l-6.68-11.224h5.937v-3.985h-6.33v-5.612h5.237v-3.917h-5.237v-4.041h-6.68v4.04h-7.175v-4.04H17.56v4.04h-5.17v3.952h5.193v5.612H11.32v3.951h6.634l-6.69 11.224h3.762v14.469H42.88l1.926-3.951h-23.09v-4.097H41.1v-6.42h4.055zm-10.734 2.47H21.716V89.21h12.706v5.332zm-.63-9.283h-11.14l2.669-4.49h5.79l2.68 4.49zm-2.377-8.396h-7.187v-5.612h7.175l.012 5.612zm81.47 32.057c16.464.289 32.178-6.847 42.763-19.416a54.245 54.245 0 0 0 11.765-45.338l-54.528 64.754zm-17.391-3.142l15.589-18.532C90.031 85.53 74.577 64.102 83.352 41.53a30.598 30.598 0 0 1 17.808-17.5c20.488-7.643 39.817 4.288 44.525 22.113l15.578-18.51C149.03 6.24 122.663-6.095 94.807 3.322 79.68 8.431 67.77 20.217 62.537 35.255 51.643 66.684 68.764 96.294 95.47 105.78h.023zM203.874.897v94.79a10.845 10.845 0 0 1-5.34 9.69 10.925 10.925 0 0 1-11.094 0 10.845 10.845 0 0 1-5.34-9.69V26.759L203.875.897z"></path></g></svg>