<svg width="60px" height="36px" viewBox="0 0 60 36" version="1.1" xmlns="http://www.w3.org/2000/svg" xmlns:xlink="http://www.w3.org/1999/xlink"><title>UI/Company/HK01Logo</title><desc>Created with Sketch.</desc><g id="组件" stroke="none" stroke-width="1" fill="none" fill-rule="evenodd"><g id="company/hk01Logo"><g id="UI/Company/HK01Logo"><polygon id="Fill-1" fill="#0033E8" points="0 35.879625 59.7316667 35.879625 59.7316667 0 0 0"></polygon><path d="M54.9636111,4.5833625 L54.9636111,28.3343625 C54.9636111,29.835675 53.7613889,31.052925 52.2786111,31.052925 C50.7963889,31.052925 49.5941667,29.835675 49.5941667,28.3343625 L49.5941667,11.061675 L54.9636111,4.5833625 Z M28.2319444,30.8611125 L32.0791667,26.219925 C26.8869444,25.790175 23.0752778,20.42505 25.2397222,14.762925 C26.0136111,12.7396125 27.6236111,11.1409875 29.6319444,10.3788 C34.6697222,8.4657375 39.4513889,11.453175 40.6113889,15.9256125 L44.4541667,11.2878 L44.4541667,11.2861125 C41.4375,5.92155 34.9347222,2.8294875 28.0630556,5.1903 C24.3397222,6.4683 21.3869444,9.4298625 20.1047222,13.19355 C17.4208333,21.067425 21.6425,28.4868 28.2291667,30.8628 L28.2319444,30.8611125 Z M32.5208333,31.6508625 L32.5208333,31.651425 C40.0619444,31.7779875 46.2136111,25.62705 46.2136111,18.0198 C46.2136111,17.1338625 46.1269444,16.265925 45.9675,15.4261125 L32.5208333,31.6508625 Z M10.6597222,23.618925 L12.4286111,23.618925 L12.4286111,22.219425 L10.6597222,22.219425 L10.6597222,23.618925 Z M13.0136111,25.72155 L10.2697222,25.72155 L10.9280556,24.6083625 L12.3552778,24.6083625 L13.0136111,25.72155 Z M10.0380556,28.0458 L13.1725,28.0458 L13.1725,26.7098625 L10.0380556,26.7098625 L10.0380556,28.0458 Z M15.8191667,27.428175 L14.1725,24.6083625 L15.6358333,24.6083625 L15.6358333,23.6178 L14.0747222,23.6178 L14.0747222,22.2199875 L15.3675,22.2199875 L15.3675,21.23055 L14.0747222,21.23055 L14.0747222,20.216925 L12.4286111,20.216925 L12.4286111,21.23055 L10.6597222,21.23055 L10.6597222,20.216925 L9.01361111,20.216925 L9.01361111,21.23055 L7.7325,21.23055 L7.7325,22.2199875 L9.01361111,22.2199875 L9.01361111,23.6178 L7.47638889,23.6178 L7.47638889,24.6083625 L9.11083333,24.6083625 L7.46416667,27.428175 L8.39138889,27.428175 L8.39138889,31.0523625 L15.2580556,31.0523625 L15.7336111,30.0623625 L10.0380556,30.0623625 L10.0380556,29.0363625 L14.8186111,29.0363625 L14.8186111,27.428175 L15.8191667,27.428175 Z M7.72027778,26.1918 L6.56138889,23.2966125 L4.81805556,23.2966125 L5.97638889,26.1918 L7.72027778,26.1918 Z M7.5375,26.660925 L5.84194444,26.660925 L4.70805556,31.0523625 L6.40361111,31.0523625 L7.5375,26.660925 Z M7.69694444,22.8882375 L6.42805556,20.203425 L4.68361111,20.203425 L5.95194444,22.8882375 L7.69694444,22.8882375 Z M7.19638889,14.77305 L13.2825,14.77305 L13.2825,13.83255 L7.19638889,13.83255 L7.19638889,14.77305 Z M7.19638889,12.8678625 L13.2825,12.8678625 L13.2825,11.9403 L7.19638889,11.9403 L7.19638889,12.8678625 Z M15.5386111,8.11755 L15.5386111,7.1528625 L11.0619444,7.1528625 L11.0619444,6.3738 L15.0380556,6.3738 L15.5386111,4.8893625 L13.8186111,4.8893625 L13.6480556,5.40855 L5.20861111,5.40855 L5.20861111,6.3738 L9.41583333,6.3738 L9.41583333,7.1528625 L4.9275,7.1528625 L4.9275,8.11755 L9.41583333,8.11755 L9.41583333,10.690425 L11.0619444,10.690425 L11.0619444,8.11755 L15.5386111,8.11755 Z M15.8063889,11.2968 L13.9408333,8.5383 L12.0497222,8.5383 L13.6969444,10.97505 L6.80583333,10.97505 L8.42805556,8.5383 L6.5375,8.5383 L4.69583333,11.2968 L5.54972222,11.2968 L5.54972222,15.7383 L14.9286111,15.7383 L14.9286111,11.2968 L15.8063889,11.2968 Z" id="Fill-2" fill="#FFFFFF"></path></g></g></g></svg>