<?xml version="1.0" standalone="no"?>
<!DOCTYPE svg PUBLIC "-//W3C//DTD SVG 20010904//EN"
 "http://www.w3.org/TR/2001/REC-SVG-20010904/DTD/svg10.dtd">
<svg version="1.0" xmlns="http://www.w3.org/2000/svg"
 width="260.000000pt" height="260.000000pt" viewBox="0 0 260.000000 260.000000"
 preserveAspectRatio="xMidYMid meet">
<metadata>
Created by potrace 1.11, written by Peter Selinger 2001-2013
</metadata>
<g transform="translate(0.000000,260.000000) scale(0.100000,-0.100000)"
fill="rgb(0, 51, 232)" stroke="none">
<path d="M475 2593 c-204 -28 -367 -159 -446 -358 l-24 -60 -3 -847 c-3 -934
-4 -915 59 -1041 40 -79 153 -192 230 -230 117 -58 91 -57 1009 -57 915 0 886
-1 1005 56 80 38 192 149 234 231 62 123 61 108 61 1004 0 499 -4 837 -10 870
-26 140 -142 300 -266 366 -135 71 -78 67 -994 69 -454 1 -838 0 -855 -3z
m728 -298 l-15 -45 -119 0 c-112 0 -119 -1 -119 -20 0 -19 7 -20 135 -20 l135
0 0 -30 0 -30 -135 0 -135 0 0 -80 0 -80 -50 0 -50 0 0 80 0 80 -135 0 -135 0
0 30 0 30 135 0 c128 0 135 1 135 20 0 18 -8 20 -127 22 l-128 3 -3 28 -3 27
256 0 c218 0 256 2 261 15 5 11 21 15 59 15 l54 0 -16 -45z m297 41 c0 -2 16
-38 35 -80 l34 -76 -55 0 -55 0 -34 76 c-19 42 -35 78 -35 80 0 2 25 4 55 4
30 0 55 -2 55 -4z m250 -26 c0 -29 1 -30 50 -30 49 0 50 1 50 30 0 29 1 30 50
30 49 0 50 -1 50 -30 0 -28 2 -30 40 -30 38 0 40 -2 40 -30 0 -28 -2 -30 -40
-30 l-40 0 0 -40 0 -40 50 0 c49 0 50 -1 50 -30 0 -28 -2 -30 -40 -30 -22 0
-40 -3 -40 -8 0 -4 20 -41 44 -82 l44 -75 -29 -3 c-26 -3 -28 -7 -31 -50 l-3
-47 -142 -3 -143 -3 0 -24 0 -25 170 0 c94 0 170 -2 170 -5 0 -4 -7 -19 -15
-35 l-16 -30 -204 0 -205 0 0 110 0 110 -25 0 c-14 0 -25 4 -25 10 0 5 20 42
44 82 l45 73 -50 3 c-47 3 -49 4 -49 33 0 28 2 29 45 29 l45 0 0 40 c0 39 -1
40 -35 40 -32 0 -35 2 -35 30 0 28 3 30 35 30 32 0 35 2 35 30 0 30 1 30 55
30 54 0 55 0 55 -30z m-221 -220 c49 -115 50 -110 -7 -110 -28 0 -54 5 -59 13
-5 6 -24 47 -41 90 l-31 78 55 -3 56 -3 27 -65z m-739 35 c0 -2 -21 -34 -46
-70 -26 -36 -44 -68 -42 -71 3 -2 94 -3 202 -2 l197 3 -45 65 c-25 36 -46 68
-46 73 0 4 24 7 54 7 l54 0 56 -80 c31 -44 56 -82 56 -85 0 -3 -11 -5 -25 -5
l-25 0 0 -135 0 -135 -282 2 -283 3 -3 133 -3 132 -24 0 -25 0 37 53 c87 124
78 117 139 117 29 0 54 -2 54 -5z m766 -182 c-2 -10 -16 -63 -31 -118 -14 -55
-28 -108 -31 -117 -4 -14 -16 -18 -55 -18 -29 0 -49 4 -49 11 0 6 15 67 32
135 l33 124 53 0 c46 0 53 -2 48 -17z m-312 -433 c125 -32 201 -74 292 -165
45 -44 88 -94 97 -110 l15 -31 -90 -107 -90 -106 -34 68 c-40 81 -102 142
-182 179 -50 24 -69 27 -162 27 -99 0 -110 -2 -172 -33 -81 -40 -148 -110
-180 -190 -34 -86 -32 -226 4 -304 50 -108 143 -186 260 -218 l58 -16 -85
-101 c-46 -56 -89 -104 -95 -108 -15 -9 -129 50 -187 98 -271 222 -318 616
-107 896 143 190 418 283 658 221z m906 -575 c0 -613 0 -610 -55 -653 -60 -47
-147 -32 -186 32 -18 29 -19 58 -19 461 l0 431 123 147 c67 80 125 147 130
147 4 0 7 -254 7 -565z m-422 -69 c-4 -88 -11 -127 -33 -186 -79 -215 -259
-371 -482 -415 -159 -32 -171 -56 184 368 256 304 319 374 326 361 5 -9 7 -67
5 -128z"/>
<path d="M1750 2180 l0 -40 50 0 50 0 0 40 0 40 -50 0 -50 0 0 -40z"/>
<path d="M1747 2050 l-18 -30 76 0 76 0 -18 30 c-15 26 -23 30 -58 30 -35 0
-43 -4 -58 -30z"/>
<path d="M1710 1915 l0 -35 95 0 95 0 0 35 0 35 -95 0 -95 0 0 -35z"/>
<path d="M720 1895 l0 -25 180 0 180 0 0 25 0 25 -180 0 -180 0 0 -25z"/>
<path d="M720 1785 l0 -25 180 0 180 0 0 25 0 25 -180 0 -180 0 0 -25z"/>
</g>
</svg>
